<mxfile host="app.diagrams.net" modified="2023-08-25T16:43:59.591Z" agent="Mozilla/5.0 (Windows NT 10.0; Win64; x64) AppleWebKit/537.36 (KHTML, like Gecko) Chrome/116.0.0.0 Safari/537.36" etag="UqaB3CZPbIuS79TZanUu" version="21.6.9" type="device">
  <diagram name="Página-1" id="SzgLFOzN7p2B5Dc8efeO">
    <mxGraphModel dx="772" dy="389" grid="1" gridSize="10" guides="1" tooltips="1" connect="1" arrows="1" fold="1" page="1" pageScale="1" pageWidth="827" pageHeight="1169" math="0" shadow="0">
      <root>
        <mxCell id="0" />
        <mxCell id="1" parent="0" />
        <mxCell id="a_3CNQIo4AK3gKYeE76t-1" value="GOLFINHO" style="swimlane;fontStyle=1;align=center;verticalAlign=top;childLayout=stackLayout;horizontal=1;startSize=26;horizontalStack=0;resizeParent=1;resizeParentMax=0;resizeLast=0;collapsible=1;marginBottom=0;whiteSpace=wrap;html=1;" vertex="1" parent="1">
          <mxGeometry x="170" y="280" width="360" height="180" as="geometry" />
        </mxCell>
        <mxCell id="a_3CNQIo4AK3gKYeE76t-2" value="Nome : string&lt;br&gt;Idade: int&amp;nbsp;&lt;br&gt;peso: decimal&lt;br&gt;espécie: string&lt;br&gt;cor:string" style="text;strokeColor=none;fillColor=none;align=left;verticalAlign=top;spacingLeft=4;spacingRight=4;overflow=hidden;rotatable=0;points=[[0,0.5],[1,0.5]];portConstraint=eastwest;whiteSpace=wrap;html=1;" vertex="1" parent="a_3CNQIo4AK3gKYeE76t-1">
          <mxGeometry y="26" width="360" height="84" as="geometry" />
        </mxCell>
        <mxCell id="a_3CNQIo4AK3gKYeE76t-3" value="" style="line;strokeWidth=1;fillColor=none;align=left;verticalAlign=middle;spacingTop=-1;spacingLeft=3;spacingRight=3;rotatable=0;labelPosition=right;points=[];portConstraint=eastwest;strokeColor=inherit;" vertex="1" parent="a_3CNQIo4AK3gKYeE76t-1">
          <mxGeometry y="110" width="360" height="20" as="geometry" />
        </mxCell>
        <mxCell id="a_3CNQIo4AK3gKYeE76t-4" value="nadar()&lt;br&gt;comer()&lt;br&gt;caçar()" style="text;strokeColor=none;fillColor=none;align=left;verticalAlign=top;spacingLeft=4;spacingRight=4;overflow=hidden;rotatable=0;points=[[0,0.5],[1,0.5]];portConstraint=eastwest;whiteSpace=wrap;html=1;" vertex="1" parent="a_3CNQIo4AK3gKYeE76t-1">
          <mxGeometry y="130" width="360" height="50" as="geometry" />
        </mxCell>
      </root>
    </mxGraphModel>
  </diagram>
</mxfile>
